<svg width="20" height="20" viewBox="0 0 20 20" fill="none" xmlns="http://www.w3.org/2000/svg">
<path d="M10.5413 8.33333C9.85801 6.39167 8.00801 5 5.83301 5C3.07467 5 0.833008 7.24167 0.833008 10C0.833008 12.7583 3.07467 15 5.83301 15C8.00801 15 9.85801 13.6083 10.5413 11.6667H14.1663V15H17.4997V11.6667H19.1663V8.33333H10.5413ZM5.83301 11.6667C4.91634 11.6667 4.16634 10.9167 4.16634 10C4.16634 9.08333 4.91634 8.33333 5.83301 8.33333C6.74968 8.33333 7.49968 9.08333 7.49968 10C7.49968 10.9167 6.74968 11.6667 5.83301 11.6667Z" fill="#EDEDED"/>
</svg>
