<svg width="201" height="57" viewBox="0 0 201 57" fill="none" xmlns="http://www.w3.org/2000/svg">
<path d="M75.3344 2.67274H64.8085V8.83114H68.5404C69.6907 8.8077 70.838 8.95548 71.9448 9.26961C72.7967 9.51161 73.5921 9.9202 74.285 10.4717C74.8774 10.9552 75.3404 11.5782 75.6325 12.2848C75.9221 13.0032 76.0677 13.7715 76.0611 14.5461C76.0776 15.4563 75.9101 16.3603 75.5684 17.2041C75.242 17.9849 74.7415 18.6808 74.1052 19.2388C73.4129 19.8299 72.6062 20.2718 71.7354 20.537C70.6977 20.8521 69.6174 21.0042 68.5331 20.9878H61.3992V0H75.3344V2.67274ZM64.8085 11.5408V18.2978H68.5257C69.1831 18.3157 69.8394 18.2326 70.4717 18.0515C70.9491 17.9106 71.3897 17.6668 71.7625 17.3371C72.0862 17.0406 72.3338 16.6705 72.4843 16.2582C72.6374 15.8256 72.7132 15.3695 72.7084 14.9107C72.716 14.4306 72.6427 13.9526 72.4917 13.4967C72.3512 13.0875 72.1047 12.7228 71.7773 12.44C71.3997 12.1283 70.9595 11.9014 70.4865 11.7748C69.8519 11.6069 69.1968 11.5289 68.5404 11.5433L64.8085 11.5408Z" fill="#878787"/>
<path d="M92.1246 6.12891V20.9953H88.9912V8.5627H84.8503C84.7623 10.1717 84.5847 11.7746 84.3182 13.3638C84.1278 14.5248 83.8427 15.6684 83.4659 16.7829C83.2003 17.5845 82.8283 18.3467 82.3598 19.0492C82.0073 19.5693 81.5682 20.0251 81.0616 20.3967C80.6398 20.7018 80.1618 20.9203 79.655 21.0396C79.1787 21.1455 78.6922 21.1992 78.2041 21.1997C77.2631 21.1997 76.7902 21.0445 76.7902 20.7342V18.7635H77.608C77.9427 18.7611 78.2751 18.7071 78.5933 18.6033C78.9607 18.4762 79.2926 18.2634 79.5614 17.9826C79.9312 17.5842 80.2362 17.1304 80.4655 16.6376C80.8065 15.9117 81.0707 15.1521 81.2538 14.3713C81.5267 13.2421 81.7339 12.098 81.8745 10.9448C82.047 9.59978 82.1825 7.99449 82.281 6.12891H92.1246Z" fill="#878787"/>
<path d="M95.9429 21.0102V6.12901H99.0763V15.443C99.0763 15.6548 99.0639 15.8864 99.0418 16.1352C99.0196 16.384 98.9851 16.6278 98.9457 16.8742C99.1082 16.4866 99.3088 16.1161 99.5443 15.7681C99.5443 15.7484 99.6552 15.608 99.8498 15.3444C100.044 15.0809 100.296 14.7434 100.601 14.3246L101.636 12.9032C102.02 12.3736 102.409 11.8317 102.808 11.2774L106.011 6.90497C106.135 6.70056 106.292 6.51824 106.476 6.36549C106.658 6.20538 106.892 6.1177 107.134 6.11916H109.028V20.9954H105.885V11.6814C105.885 11.4868 105.885 11.2676 105.915 11.0262C105.944 10.7848 105.961 10.5335 106.001 10.2872C105.905 10.5015 105.806 10.6985 105.71 10.8759C105.623 11.0407 105.525 11.1995 105.417 11.3513C105.4 11.371 105.294 11.5139 105.104 11.78C104.914 12.046 104.668 12.3909 104.365 12.8096L103.323 14.2285C102.934 14.7606 102.541 15.3009 102.143 15.8494C101.199 17.1435 100.14 18.601 98.9654 20.2219C98.8371 20.4211 98.6802 20.6003 98.4998 20.754C98.3189 20.9135 98.0858 21.0012 97.8446 21.0003L95.9429 21.0102Z" fill="#878787"/>
<path d="M111.933 7.70305C112.536 7.14289 113.239 6.70013 114.004 6.39747C114.939 6.04449 115.934 5.87715 116.933 5.9048C117.751 5.8911 118.567 6.00156 119.352 6.23243C119.984 6.416 120.58 6.70861 121.111 7.09706C121.561 7.4327 121.932 7.8633 122.197 8.3583C122.44 8.81325 122.568 9.32068 122.569 9.83632C122.567 10.1398 122.523 10.4415 122.439 10.733C122.344 11.0532 122.199 11.356 122.008 11.6296C121.79 11.9415 121.525 12.2174 121.222 12.4475C120.857 12.7195 120.45 12.9308 120.017 13.0732C120.83 13.3183 121.558 13.7879 122.116 14.428C122.639 15.0633 122.914 15.8668 122.89 16.6894C122.899 17.356 122.729 18.0128 122.397 18.5911C122.075 19.1527 121.636 19.639 121.111 20.0174C120.546 20.4199 119.915 20.7209 119.246 20.9066C118.533 21.1128 117.794 21.2164 117.051 21.2146C116.575 21.2128 116.099 21.1708 115.63 21.0889C114.61 20.9193 113.637 20.532 112.78 19.9533C112.324 19.6455 111.915 19.272 111.568 18.8448L112.472 17.6944C112.533 17.5967 112.62 17.5177 112.723 17.466C112.826 17.4143 112.941 17.3919 113.056 17.4013C113.273 17.4097 113.483 17.4864 113.654 17.6205C113.856 17.7659 114.098 17.926 114.376 18.1132C114.692 18.3133 115.029 18.4785 115.381 18.6059C115.853 18.763 116.348 18.8364 116.845 18.8226C117.283 18.8297 117.721 18.7716 118.143 18.6502C118.492 18.549 118.819 18.3818 119.106 18.1575C119.357 17.9589 119.561 17.7063 119.702 17.4185C119.839 17.124 119.909 16.8025 119.906 16.4775C119.915 16.1694 119.846 15.864 119.704 15.59C119.563 15.316 119.355 15.0823 119.098 14.9108C118.558 14.4953 117.71 14.2876 116.554 14.2876H114.879V12.2184H116.554C117.564 12.2184 118.346 12.0336 118.901 11.6641C119.144 11.5246 119.346 11.3259 119.491 11.0866C119.635 10.8474 119.717 10.5754 119.728 10.2961C119.738 10.0168 119.678 9.73935 119.553 9.48964C119.427 9.23992 119.24 9.02612 119.01 8.86822C118.529 8.49872 117.807 8.31396 116.845 8.31396C116.375 8.30501 115.907 8.36139 115.453 8.48147C115.12 8.57473 114.796 8.69671 114.485 8.84605C114.221 8.97661 113.992 9.09238 113.822 9.20324C113.68 9.29673 113.516 9.35189 113.347 9.36335C113.217 9.36668 113.089 9.33701 112.975 9.27714C112.84 9.18152 112.728 9.05696 112.647 8.91256L111.933 7.70305Z" fill="#878787"/>
<path d="M134.891 6.97384C135.047 6.71949 135.265 6.50856 135.524 6.36046C135.778 6.20974 136.067 6.12977 136.362 6.12891H138.81L135.152 11.7109C134.95 12.0499 134.701 12.3592 134.413 12.6297C134.144 12.8721 133.827 13.0551 133.482 13.1667C133.923 13.2848 134.332 13.4993 134.679 13.7949C135.021 14.1024 135.309 14.4645 135.532 14.8664L139.227 21.0027H137.071C136.624 21.0276 136.178 20.9323 135.78 20.7268C135.456 20.5236 135.187 20.2424 135 19.9089L132.47 15.5586C132.29 15.213 132.011 14.9291 131.669 14.7433C131.322 14.5639 130.936 14.4734 130.546 14.4797H129.068V21.01H125.942V6.12891H129.075V12.3809H130.344C130.698 12.3928 131.05 12.3121 131.364 12.1469C131.654 11.9723 131.895 11.7264 132.063 11.4325L134.891 6.97384Z" fill="#878787"/>
<path d="M141.421 21.0099V6.12876H144.555V15.4427C144.555 15.6546 144.555 15.8861 144.518 16.1349C144.481 16.3837 144.461 16.6276 144.424 16.8739C144.585 16.486 144.785 16.1154 145.02 15.7679C145.02 15.7482 145.131 15.6078 145.326 15.3442C145.52 15.0806 145.772 14.7431 146.077 14.3243L147.112 12.903C147.496 12.3742 147.887 11.8322 148.284 11.2772L151.487 6.90471C151.612 6.70078 151.771 6.51859 151.955 6.36524C152.136 6.20569 152.369 6.11805 152.61 6.1189H154.504V20.9951H151.361V11.6812C151.361 11.4866 151.361 11.2673 151.391 11.0259C151.42 10.7845 151.44 10.5332 151.477 10.2869C151.381 10.5012 151.282 10.6983 151.186 10.8756C151.1 11.0403 151.003 11.1992 150.895 11.3511C150.876 11.3708 150.77 11.5137 150.58 11.7797C150.39 12.0457 150.144 12.3906 149.841 12.8094C149.538 13.2282 149.186 13.6987 148.799 14.2283C148.412 14.7579 148.016 15.2998 147.617 15.8541L144.439 20.2266C144.311 20.4257 144.154 20.605 143.973 20.7586C143.793 20.9182 143.559 21.0058 143.318 21.005L141.421 21.0099Z" fill="#878787"/>
<path d="M164.537 5.89487C165.403 5.88645 166.263 6.03673 167.075 6.33827C167.831 6.62292 168.517 7.06836 169.085 7.64385C169.667 8.24601 170.117 8.96347 170.405 9.75002C170.731 10.659 170.889 11.6198 170.871 12.5853C170.901 12.922 170.846 13.261 170.711 13.5707C170.643 13.6589 170.554 13.7279 170.451 13.7711C170.349 13.8143 170.237 13.8301 170.127 13.817H160.586C160.608 14.5633 160.741 15.3022 160.98 16.0094C161.174 16.5769 161.479 17.1002 161.877 17.549C162.247 17.9533 162.707 18.2647 163.22 18.458C163.776 18.6618 164.366 18.7612 164.959 18.7511C165.496 18.7609 166.032 18.6895 166.548 18.5393C166.948 18.4172 167.338 18.2614 167.713 18.0737C168.043 17.9037 168.326 17.7461 168.558 17.6057C168.749 17.4785 168.971 17.4053 169.201 17.3938C169.315 17.3893 169.428 17.4138 169.53 17.4651C169.632 17.5163 169.72 17.5927 169.784 17.687L170.671 18.8373C170.311 19.2679 169.889 19.6416 169.417 19.9459C168.954 20.2472 168.458 20.4951 167.939 20.6849C167.415 20.8745 166.873 21.0107 166.321 21.0913C165.785 21.1736 165.244 21.2156 164.703 21.2169C163.722 21.2248 162.749 21.0467 161.835 20.6923C160.969 20.3576 160.187 19.8371 159.544 19.1674C158.87 18.4516 158.354 17.6023 158.029 16.6745C157.647 15.5743 157.461 14.4151 157.482 13.2505C157.476 12.2667 157.643 11.2894 157.975 10.3634C158.282 9.50076 158.759 8.70837 159.377 8.03306C159.999 7.36212 160.754 6.82849 161.594 6.46637C162.524 6.07217 163.527 5.87748 164.537 5.89487ZM164.597 8.16855C163.459 8.16855 162.564 8.497 161.914 9.15389C161.264 9.81079 160.853 10.7247 160.682 11.8956H168.072C168.078 11.3939 168.001 10.8947 167.846 10.4176C167.702 9.98466 167.475 9.58444 167.176 9.24011C166.877 8.89913 166.506 8.62971 166.089 8.45183C165.617 8.25501 165.108 8.15854 164.597 8.16855Z" fill="#878787"/>
<path d="M74.1963 33.0435H64.8232V51.366H61.3992V30.3782H74.2086L74.1963 33.0435Z" fill="#878787"/>
<path d="M77.9727 36.2655C78.9917 36.251 80.004 36.4342 80.9533 36.805C81.8123 37.1456 82.5879 37.6674 83.227 38.3348C83.8716 39.0278 84.3649 39.8474 84.6755 40.7415C85.3554 42.8054 85.3554 45.033 84.6755 47.0969C84.3634 47.9918 83.8704 48.8127 83.227 49.5086C82.5895 50.1797 81.8137 50.7043 80.9533 51.0457C79.0262 51.7649 76.9043 51.7649 74.9772 51.0457C74.1142 50.7038 73.3353 50.1794 72.6937 49.5086C72.0461 48.8146 71.5502 47.9933 71.2378 47.0969C70.5579 45.033 70.5579 42.8054 71.2378 40.7415C71.549 39.8461 72.0451 39.0261 72.6937 38.3348C73.337 37.6677 74.1156 37.1462 74.9772 36.805C75.9315 36.4333 76.9487 36.2501 77.9727 36.2655ZM77.9727 49.1366C79.3127 49.1366 80.3104 48.6874 80.9656 47.7891C81.6209 46.8908 81.9493 45.6058 81.951 43.934C81.951 42.2622 81.6225 40.9722 80.9656 40.064C80.3087 39.1559 79.3111 38.701 77.9727 38.6993C76.6112 38.6993 75.6004 39.1542 74.9403 40.064C74.2801 40.9738 73.9516 42.2638 73.9549 43.934C73.9549 45.6041 74.2834 46.8892 74.9403 47.7891C75.5972 48.6891 76.608 49.1382 77.9727 49.1366Z" fill="#878787"/>
<path d="M88.1882 56.3073V36.4995H90.085C90.2699 36.4841 90.4541 36.5359 90.6039 36.6454C90.7537 36.7549 90.8589 36.9148 90.9004 37.0956L91.1467 38.6574C91.451 38.3056 91.7803 37.9763 92.1321 37.672C92.4785 37.373 92.8578 37.1143 93.2627 36.901C93.6734 36.6857 94.1084 36.5203 94.5585 36.4083C95.0421 36.2896 95.5385 36.2309 96.0365 36.2334C96.8234 36.2221 97.602 36.3951 98.3102 36.7384C99.0003 37.0816 99.5995 37.583 100.059 38.2017C100.581 38.919 100.964 39.7278 101.187 40.5862C101.47 41.6481 101.605 42.7439 101.589 43.8427C101.597 44.8824 101.448 45.9173 101.145 46.9121C100.876 47.8051 100.444 48.6403 99.8695 49.3754C99.3144 50.0823 98.6026 50.6505 97.7904 51.0352C96.9782 51.42 96.0876 51.6107 95.1891 51.5925C94.4688 51.6202 93.751 51.493 93.0842 51.2193C92.4174 50.9456 91.8171 50.5318 91.3241 50.0061V56.3024L88.1882 56.3073ZM94.9994 38.7436C94.2744 38.7221 93.5575 38.9011 92.9277 39.2609C92.3067 39.6497 91.7637 40.151 91.3265 40.7389V47.6363C91.6979 48.1455 92.1907 48.5537 92.7602 48.8236C93.3048 49.0567 93.8922 49.1734 94.4846 49.1661C95.708 49.1661 96.6622 48.7185 97.347 47.8235C98.0318 46.9285 98.3742 45.5975 98.3742 43.8304C98.3879 43.0448 98.3102 42.2603 98.1426 41.4927C98.0227 40.9275 97.7952 40.3906 97.4726 39.9112C97.205 39.5239 96.8372 39.2165 96.4084 39.022C95.9634 38.8318 95.4834 38.737 94.9994 38.7436Z" fill="#878787"/>
<path d="M104.631 51.3807V36.4995H107.764V45.8184C107.764 46.0327 107.752 46.2618 107.728 46.5106C107.703 46.7594 107.671 47.0033 107.634 47.2619C107.795 46.8735 107.995 46.5021 108.23 46.1534C108.23 46.1337 108.343 45.9933 108.538 45.7297C108.733 45.4661 108.981 45.1287 109.277 44.7099C109.573 44.2911 109.93 43.8181 110.312 43.2885L111.487 41.6627C112.428 40.3719 113.495 38.9144 114.689 37.2903C114.814 37.0868 114.972 36.9047 115.155 36.7508C115.335 36.5912 115.569 36.5036 115.81 36.5044H117.704V51.3708H114.571V42.0519C114.571 41.8573 114.571 41.6405 114.6 41.3967C114.63 41.1528 114.65 40.904 114.689 40.6577C114.59 40.872 114.494 41.069 114.396 41.2489C114.309 41.4125 114.212 41.5704 114.105 41.7218C114.085 41.7415 113.982 41.8844 113.792 42.1529C113.603 42.4214 113.354 42.7614 113.053 43.1801L111.997 44.5867C111.607 45.1155 111.213 45.6575 110.814 46.2125C109.873 47.5033 108.815 48.9608 107.639 50.585C107.509 50.7837 107.351 50.9628 107.171 51.1171C106.991 51.2782 106.757 51.3661 106.516 51.3634L104.631 51.3807Z" fill="#878787"/>
<path d="M120.618 38.0736C121.221 37.5142 121.923 37.0715 122.688 36.768C123.623 36.4152 124.618 36.2479 125.617 36.2754C126.436 36.2629 127.252 36.3734 128.038 36.603C128.672 36.7893 129.269 37.0853 129.802 37.4775C130.252 37.8125 130.622 38.2433 130.886 38.7387C131.128 39.1939 131.255 39.7012 131.258 40.2167C131.257 40.5203 131.213 40.8222 131.127 41.1134C131.033 41.4325 130.888 41.7345 130.698 42.0076C130.48 42.3195 130.214 42.5954 129.91 42.8254C129.546 43.0984 129.14 43.3098 128.708 43.4511C129.521 43.6971 130.249 44.1675 130.807 44.8084C131.33 45.4426 131.605 46.2454 131.58 47.0673C131.59 47.734 131.42 48.3909 131.088 48.9691C130.762 49.5294 130.32 50.0139 129.792 50.3904C129.225 50.792 128.594 51.0929 127.925 51.2797C127.212 51.485 126.474 51.5878 125.732 51.5851C125.256 51.5831 124.781 51.5419 124.311 51.462C123.812 51.3764 123.323 51.2394 122.853 51.0531C122.363 50.8584 121.896 50.6106 121.461 50.314C121.006 50.0057 120.599 49.6331 120.251 49.208L121.155 48.0551C121.216 47.9579 121.303 47.8793 121.405 47.828C121.508 47.7767 121.622 47.7547 121.737 47.7645C121.955 47.7719 122.164 47.8487 122.335 47.9837C122.54 48.129 122.779 48.2892 123.057 48.4641C123.376 48.6601 123.714 48.8219 124.067 48.9469C124.539 49.105 125.035 49.1792 125.533 49.1661C125.972 49.1722 126.409 49.1132 126.831 48.9912C127.18 48.8901 127.506 48.7228 127.792 48.4986C128.044 48.2949 128.248 48.0384 128.39 47.7472C128.527 47.4526 128.596 47.131 128.592 46.8062C128.601 46.4981 128.532 46.1927 128.39 45.9187C128.249 45.6447 128.04 45.411 127.784 45.2395C127.244 44.8552 126.397 44.6631 125.242 44.6631H123.574V42.5939H125.252C126.262 42.5939 127.044 42.4091 127.597 42.0396C127.84 41.9009 128.045 41.7024 128.19 41.463C128.336 41.2236 128.418 40.9511 128.429 40.6712C128.44 40.3913 128.379 40.1131 128.253 39.8629C128.127 39.6128 127.94 39.3988 127.708 39.2413C127.215 38.8717 126.506 38.687 125.543 38.687C125.073 38.678 124.605 38.7344 124.151 38.8545C123.818 38.9482 123.493 39.0702 123.18 39.2191C122.919 39.3521 122.688 39.4654 122.518 39.5763C122.377 39.6712 122.214 39.7265 122.045 39.7364C121.915 39.7407 121.787 39.711 121.673 39.6502C121.536 39.5559 121.424 39.4311 121.345 39.2856L120.618 38.0736Z" fill="#878787"/>
<path d="M141.064 36.2657C142.083 36.2512 143.095 36.4344 144.045 36.8052C144.904 37.1451 145.68 37.667 146.318 38.3349C146.963 39.0285 147.457 39.8479 147.769 40.7416C148.449 42.8056 148.449 45.0332 147.769 47.0971C147.454 47.9942 146.958 48.8167 146.311 49.5136C145.674 50.1853 144.898 50.7099 144.037 51.0508C142.11 51.77 139.988 51.77 138.061 51.0508C137.199 50.7097 136.42 50.1852 135.78 49.5136C135.131 48.8205 134.634 47.999 134.322 47.102C133.642 45.0381 133.642 42.8105 134.322 40.7466C134.633 39.8506 135.13 39.0304 135.78 38.3399C136.422 37.6723 137.2 37.1506 138.061 36.8101C139.018 36.4358 140.037 36.2509 141.064 36.2657ZM141.064 49.1368C142.404 49.1368 143.403 48.6876 144.06 47.7893C144.716 46.891 145.045 45.6059 145.045 43.9341C145.045 42.2623 144.716 40.9724 144.06 40.0642C143.403 39.1561 142.404 38.7012 141.064 38.6995C139.703 38.6995 138.692 39.1544 138.032 40.0642C137.372 40.974 137.043 42.264 137.046 43.9341C137.046 45.6043 137.375 46.8893 138.032 47.7893C138.689 48.6892 139.699 49.1384 141.064 49.1368Z" fill="#878787"/>
<path d="M163.956 36.4995V51.3659H160.835V44.6187H154.408V51.3659H151.275V36.4995H154.408V42.2564H160.835V36.4995H163.956Z" fill="#878787"/>
<path d="M166.242 36.4995H180.352V38.8594H174.871V51.3659H171.738V38.8594H166.242V36.4995Z" fill="#878787"/>
<path d="M185.614 36.4995V42.1652H188.501C189.385 42.1431 190.267 42.2689 191.11 42.5372C191.75 42.7409 192.338 43.0813 192.834 43.5349C193.261 43.9365 193.586 44.4338 193.782 44.9858C193.977 45.5356 194.075 46.1147 194.073 46.6978C194.082 47.3451 193.958 47.9873 193.709 48.5847C193.466 49.1514 193.1 49.6564 192.637 50.0628C192.134 50.4999 191.548 50.8294 190.913 51.0309C190.152 51.271 189.358 51.3866 188.56 51.3733H182.648V36.4995H185.614ZM185.614 44.4143V49.0947H188.545C188.954 49.103 189.36 49.0413 189.747 48.9124C190.064 48.8081 190.357 48.6405 190.607 48.4197C190.832 48.2164 191.007 47.9633 191.117 47.6807C191.231 47.3734 191.288 47.0478 191.285 46.72C191.286 46.4193 191.234 46.1208 191.132 45.8381C191.028 45.5565 190.859 45.3034 190.639 45.0991C190.394 44.8757 190.103 44.7077 189.787 44.6064C189.372 44.4759 188.938 44.4143 188.503 44.4241L185.614 44.4143ZM200.148 36.4995V51.3659H197.027V36.4995H200.148Z" fill="#878787"/>
<path d="M0.160156 51.4841V39.49C0.160156 35.8429 1.60878 32.3452 4.18742 29.7661C6.76606 27.187 10.2635 25.7377 13.9106 25.7371V37.7262C13.9116 39.5326 13.5566 41.3214 12.866 42.9906C12.1755 44.6597 11.1628 46.1764 9.88581 47.454C8.60887 48.7317 7.0927 49.7452 5.42394 50.4367C3.75517 51.1282 1.96651 51.4841 0.160156 51.4841Z" fill="#878787"/>
<path d="M17.2657 51.4842V26.6191C17.2657 22.9723 18.7145 19.4748 21.2932 16.8961C23.8719 14.3174 27.3694 12.8687 31.0162 12.8687V37.7264C31.0172 39.5327 30.6622 41.3216 29.9716 42.9907C29.281 44.6599 28.2683 46.1766 26.9914 47.4542C25.7145 48.7318 24.1983 49.7454 22.5295 50.4368C20.8608 51.1283 19.0721 51.4842 17.2657 51.4842Z" fill="#878787"/>
<path d="M34.3713 51.4842V13.7505C34.3713 10.1036 35.82 6.60613 38.3987 4.02742C40.9775 1.44871 44.4749 0 48.1218 0V0V37.7263C48.1228 39.5327 47.7678 41.3215 47.0772 42.9907C46.3866 44.6598 45.3739 46.1765 44.097 47.4541C42.82 48.7318 41.3039 49.7453 39.6351 50.4368C37.9664 51.1283 36.1777 51.4842 34.3713 51.4842Z" fill="#878787"/>
</svg>
